# Blender 5.1.2
# www.blender.org
mtllib crest.mtl
o Circle
v -0.342480 0.611093 0.109962
v -0.119542 0.697460 0.109962
v 0.119542 0.697460 0.109962
v 0.342480 0.611093 0.109962
v 0.364727 -0.000000 0.109962
v 0.352307 0.133415 0.109962
v 0.292306 0.253914 0.109962
v 0.192827 0.344601 0.109962
v 0.067306 0.393228 0.109962
v -0.067306 0.393228 0.109962
v -0.192827 0.344601 0.109962
v -0.292305 0.253914 0.109962
v -0.352307 0.133415 0.109962
v -0.364727 -0.000000 0.109962
v 0.519165 0.450023 0.109962
v 0.625734 0.236005 0.109962
v 0.647794 -0.000000 0.109962
v -0.519165 0.450023 0.109962
v -0.625734 0.236005 0.109962
v -0.647793 -0.000000 0.109962
v -0.342480 0.611093 -0.109962
v -0.119542 0.697460 -0.109962
v 0.119542 0.697460 -0.109962
v 0.342480 0.611093 -0.109962
v 0.364727 0.000000 -0.109962
v 0.352307 0.133415 -0.109962
v 0.292306 0.253914 -0.109962
v 0.192827 0.344601 -0.109962
v 0.067306 0.393228 -0.109962
v -0.067306 0.393228 -0.109962
v -0.192827 0.344601 -0.109962
v -0.292305 0.253914 -0.109962
v -0.352307 0.133415 -0.109962
v -0.364727 0.000000 -0.109962
v 0.519165 0.450023 -0.109962
v 0.625734 0.236005 -0.109962
v 0.647794 0.000000 -0.109962
v -0.519165 0.450023 -0.109962
v -0.625734 0.236005 -0.109962
v -0.647793 0.000000 -0.109962
v -0.067306 -0.000000 0.109962
v 0.067306 -0.000000 0.109962
v -0.067306 0.000000 -0.109962
v 0.067306 0.000000 -0.109962
vn -0.0000 -0.0000 1.0000
vn -0.0000 -0.0000 -1.0000
vn 0.8952 -0.4457 -0.0000
vn -0.9957 -0.0927 -0.0000
vn 0.9957 -0.0927 -0.0000
vn -0.0000 -1.0000 -0.0000
vn -0.8952 -0.4457 -0.0000
vn 0.6737 0.7390 -0.0000
vn -0.6737 -0.7390 -0.0000
vn 0.8952 0.4457 -0.0000
vn -0.3612 -0.9325 -0.0000
vn -0.8952 0.4457 -0.0000
vn 0.9957 0.0931 -0.0000
vn -0.3612 0.9325 -0.0000
vn -0.6737 0.7390 -0.0000
vn 0.3612 -0.9325 -0.0000
vn -0.0000 1.0000 -0.0000
vn -0.9957 0.0931 -0.0000
vn 0.6737 -0.7390 -0.0000
vn 0.3612 0.9325 -0.0000
vn 1.0000 -0.0000 -0.0000
vn -1.0000 -0.0000 -0.0000
vt 0.000000 0.000000
s 0
f 13/1/1 19/1/1 20/1/1 14/1/1
f 18/1/1 19/1/1 13/1/1 12/1/1
f 11/1/1 1/1/1 18/1/1 12/1/1
f 2/1/1 1/1/1 11/1/1 10/1/1
f 3/1/1 2/1/1 10/1/1 9/1/1
f 4/1/1 3/1/1 9/1/1 8/1/1
f 7/1/1 15/1/1 4/1/1 8/1/1
f 6/1/1 16/1/1 15/1/1 7/1/1
f 5/1/1 17/1/1 16/1/1 6/1/1
f 33/1/2 34/1/2 40/1/2 39/1/2
f 38/1/2 32/1/2 33/1/2 39/1/2
f 31/1/2 32/1/2 38/1/2 21/1/2
f 22/1/2 30/1/2 31/1/2 21/1/2
f 23/1/2 29/1/2 30/1/2 22/1/2
f 24/1/2 28/1/2 29/1/2 23/1/2
f 27/1/2 28/1/2 24/1/2 35/1/2
f 26/1/2 27/1/2 35/1/2 36/1/2
f 25/1/2 26/1/2 36/1/2 37/1/2
f 13/1/3 33/1/3 32/1/3 12/1/3
f 6/1/4 26/1/4 25/1/4 5/1/4
f 14/1/5 34/1/5 33/1/5 13/1/5
f 5/1/6 25/1/6 37/1/6 17/1/6
f 7/1/7 27/1/7 26/1/7 6/1/7
f 15/1/8 35/1/8 24/1/8 4/1/8
f 8/1/9 28/1/9 27/1/9 7/1/9
f 16/1/10 36/1/10 35/1/10 15/1/10
f 9/1/11 29/1/11 28/1/11 8/1/11
f 18/1/12 38/1/12 39/1/12 19/1/12
f 17/1/13 37/1/13 36/1/13 16/1/13
f 29/1/2 44/1/2 43/1/2 30/1/2
f 2/1/14 22/1/14 21/1/14 1/1/14
f 1/1/15 21/1/15 38/1/15 18/1/15
f 11/1/16 31/1/16 30/1/16 10/1/16
f 3/1/17 23/1/17 22/1/17 2/1/17
f 19/1/18 39/1/18 40/1/18 20/1/18
f 12/1/19 32/1/19 31/1/19 11/1/19
f 4/1/20 24/1/20 23/1/20 3/1/20
f 20/1/6 40/1/6 34/1/6 14/1/6
f 41/1/6 43/1/6 44/1/6 42/1/6
f 9/1/21 42/1/21 44/1/21 29/1/21
f 30/1/22 43/1/22 41/1/22 10/1/22
f 10/1/1 41/1/1 42/1/1 9/1/1
