# Blender 5.1.2
# www.blender.org
mtllib RomanShield.mtl
o Circle
v 0.000000 -1.361396 -0.472671
v -0.382683 -1.276726 -0.462022
v -0.707107 -1.040488 -0.390009
v -0.923880 -0.676888 -0.217470
v -1.000000 -0.026606 0.055712
v 1.000000 -0.026606 0.055712
v 0.923880 -0.676888 -0.217470
v 0.707107 -1.040488 -0.390009
v 0.382683 -1.276726 -0.462022
v 0.000000 1.852886 -0.472671
v -0.382683 1.768215 -0.462022
v -0.707107 1.531978 -0.390009
v -0.923880 1.168377 -0.217470
v -1.000000 0.518096 0.055712
v 1.000000 0.518096 0.055712
v 0.923880 1.168377 -0.217470
v 0.707107 1.531978 -0.390009
v 0.382683 1.768215 -0.462022
v 0.000000 -1.361396 -0.532671
v -0.388315 -1.276726 -0.521758
v -0.726037 -1.040488 -0.446945
v -0.965105 -0.676888 -0.261064
v -1.057798 -0.026606 0.039607
v 1.057798 -0.026606 0.039607
v 0.965105 -0.676888 -0.261064
v 0.726037 -1.040488 -0.446945
v 0.388315 -1.276726 -0.521758
v 0.000000 1.852886 -0.532671
v -0.388315 1.768215 -0.521758
v -0.726037 1.531978 -0.446945
v -0.965105 1.168377 -0.261064
v -1.057798 0.518096 0.039607
v 1.057798 0.518096 0.039607
v 0.965105 1.168377 -0.261064
v 0.726037 1.531978 -0.446945
v 0.388315 1.768215 -0.521758
v 0.010000 -1.361396 -0.542222
v -0.378315 -1.276726 -0.531309
v -0.716037 -1.040488 -0.456496
v -0.955105 -0.676888 -0.285839
v -1.074589 -0.026606 0.008861
v 1.067798 -0.026606 0.030056
v 0.975105 -0.676888 -0.270615
v 0.736037 -1.040488 -0.456496
v 0.398315 -1.276726 -0.531309
v 0.010000 1.852886 -0.542222
v -0.378315 1.768215 -0.531309
v -0.716037 1.531978 -0.456496
v -0.955105 1.168377 -0.285839
v -1.074589 0.518096 0.008861
v 1.067798 0.518096 0.030056
v 0.975105 1.168377 -0.270615
v 0.736037 1.531978 -0.456496
v 0.398315 1.768215 -0.531309
vn -0.9633 -0.0000 0.2684
vn 0.6228 -0.0000 0.7824
vn 0.0278 -0.0000 0.9996
vn -0.0278 -0.0000 0.9996
vn -0.6228 -0.0000 0.7824
vn 0.9633 -0.0000 0.2684
vn 0.2167 -0.0000 0.9762
vn -0.2167 -0.0000 0.9762
vn 0.9556 -0.0000 -0.2946
vn -0.6138 -0.0000 -0.7895
vn -0.0281 -0.0000 -0.9996
vn 0.0281 -0.0000 -0.9996
vn 0.6138 -0.0000 -0.7895
vn -0.9556 -0.0000 -0.2946
vn -0.2163 -0.0000 -0.9763
vn 0.2163 -0.0000 -0.9763
vn -0.2142 -0.9767 0.0101
vn -0.5594 -0.8205 0.1178
vn -0.6730 -0.6204 0.4027
vn -0.4717 -0.4065 0.7825
vn 0.4717 -0.4065 0.7825
vn 0.6730 -0.6204 0.4027
vn 0.5594 -0.8205 0.1178
vn 0.2142 -0.9767 0.0101
vn -0.5594 0.8205 0.1178
vn -0.6730 0.6204 0.4027
vn -0.4717 0.4065 0.7825
vn 0.4717 0.4065 0.7825
vn 0.6730 0.6204 0.4027
vn 0.5594 0.8205 0.1178
vn 0.2142 0.9767 0.0101
vn 0.2684 -0.0000 0.9633
vn -0.2684 -0.0000 0.9633
vn -0.2142 0.9767 0.0101
vn -0.5810 -0.0000 -0.8139
vn -0.9267 -0.0000 -0.3757
vt 0.000000 0.000000
vt 0.186129 0.210176
vt 0.180134 0.783085
vt 0.084560 0.580166
vt 0.086330 0.411050
vt 0.830183 0.216915
vt 0.824188 0.789824
vt 0.728986 0.901729
vt 0.737343 0.103042
vt 0.630715 0.028573
vt 0.620822 0.973952
vt 0.499937 0.998978
vt 0.510380 0.001022
vt 0.379602 0.971427
vt 0.389495 0.026048
vt 0.281331 0.098271
vt 0.272974 0.896958
vt 0.925757 0.419834
vt 0.923987 0.588950
s 0
usemtl Material.001
f 7/1/1 6/1/1 15/1/1 16/1/1
f 4/1/2 3/1/2 12/1/2 13/1/2
f 2/1/3 1/1/3 10/1/3 11/1/3
f 1/1/4 9/1/4 18/1/4 10/1/4
f 8/1/5 7/1/5 16/1/5 17/1/5
f 5/1/6 4/1/6 13/1/6 14/1/6
f 3/1/7 2/1/7 11/1/7 12/1/7
f 9/1/8 8/1/8 17/1/8 18/1/8
f 25/1/9 34/1/9 33/1/9 24/1/9
f 22/1/10 31/1/10 30/1/10 21/1/10
f 20/1/11 29/1/11 28/1/11 19/1/11
f 19/1/12 28/1/12 36/1/12 27/1/12
f 26/1/13 35/1/13 34/1/13 25/1/13
f 23/1/14 32/1/14 31/1/14 22/1/14
f 21/1/15 30/1/15 29/1/15 20/1/15
f 27/1/16 36/1/16 35/1/16 26/1/16
f 1/1/17 2/1/17 20/1/17 19/1/17
f 2/1/18 3/1/18 21/1/18 20/1/18
f 3/1/19 4/1/19 22/1/19 21/1/19
f 4/1/20 5/1/20 23/1/20 22/1/20
f 6/1/21 7/1/21 25/1/21 24/1/21
f 7/1/22 8/1/22 26/1/22 25/1/22
f 8/1/23 9/1/23 27/1/23 26/1/23
f 9/1/24 1/1/24 19/1/24 27/1/24
f 12/1/25 11/1/25 29/1/25 30/1/25
f 13/1/26 12/1/26 30/1/26 31/1/26
f 14/1/27 13/1/27 31/1/27 32/1/27
f 16/1/28 15/1/28 33/1/28 34/1/28
f 17/1/29 16/1/29 34/1/29 35/1/29
f 18/1/30 17/1/30 35/1/30 36/1/30
f 10/1/31 18/1/31 36/1/31 28/1/31
f 15/1/32 6/1/32 24/1/32 33/1/32
f 5/1/33 14/1/33 32/1/33 23/1/33
f 10/1/34 28/1/34 29/1/34 11/1/34
usemtl Material
f 43/2/9 52/3/9 51/4/9 42/5/9
f 40/6/35 49/7/35 48/8/35 39/9/35
f 38/10/11 47/11/11 46/12/11 37/13/11
f 37/13/12 46/12/12 54/14/12 45/15/12
f 44/16/13 53/17/13 52/3/13 43/2/13
f 41/18/36 50/19/36 49/7/36 40/6/36
f 39/9/15 48/8/15 47/11/15 38/10/15
f 45/15/16 54/14/16 53/17/16 44/16/16
