# Blender 5.1.2
# www.blender.org
mtllib Roman1Shield.mtl
o Circle
v 0.000000 0.000000 -0.472671
v -0.382683 0.000000 -0.462022
v -0.707107 0.000000 -0.390009
v -0.923880 0.000000 -0.217470
v -1.000000 0.000000 0.055712
v 1.000000 0.000000 0.055712
v 0.923880 0.000000 -0.217470
v 0.707107 0.000000 -0.390009
v 0.382683 0.000000 -0.462022
v 0.000000 2.911760 -0.472671
v -0.382683 2.911760 -0.462022
v -0.707107 2.911760 -0.390009
v -0.923880 2.911760 -0.217470
v -1.000000 2.911760 0.055712
v 1.000000 2.911760 0.055712
v 0.923880 2.911760 -0.217470
v 0.707107 2.911760 -0.390009
v 0.382683 2.911760 -0.462022
v 0.000000 0.000000 -0.532671
v -0.390052 0.000000 -0.521568
v -0.732953 0.000000 -0.444157
v -0.973898 0.000000 -0.250609
v -1.057798 0.000000 0.039607
v 1.057798 0.000000 0.039607
v 0.973898 0.000000 -0.250609
v 0.732953 0.000000 -0.444157
v 0.390052 0.000000 -0.521568
v 0.000000 2.911760 -0.532671
v -0.390052 2.911760 -0.521568
v -0.732953 2.911760 -0.444157
v -0.973898 2.911760 -0.250609
v -1.057798 2.911760 0.039607
v 1.057798 2.911760 0.039607
v 0.973898 2.911760 -0.250609
v 0.732953 2.911760 -0.444157
v 0.390052 2.911760 -0.521568
vn -0.9633 -0.0000 0.2684
vn 0.6228 -0.0000 0.7824
vn 0.0278 -0.0000 0.9996
vn -0.0278 -0.0000 0.9996
vn -0.6228 -0.0000 0.7824
vn 0.9633 -0.0000 0.2684
vn 0.2167 -0.0000 0.9762
vn -0.2167 -0.0000 0.9762
vn 0.9607 -0.0000 -0.2777
vn -0.6263 -0.0000 -0.7796
vn -0.0285 -0.0000 -0.9996
vn 0.0285 -0.0000 -0.9996
vn 0.6263 -0.0000 -0.7796
vn -0.9607 -0.0000 -0.2777
vn -0.2202 -0.0000 -0.9755
vn 0.2202 -0.0000 -0.9755
vn -0.0000 -1.0000 -0.0000
vn -0.0000 1.0000 -0.0000
vn 0.2684 -0.0000 0.9633
vn -0.2684 -0.0000 0.9633
vt 0.000000 0.000000
s 0
usemtl shield
f 7/1/1 6/1/1 15/1/1 16/1/1
f 4/1/2 3/1/2 12/1/2 13/1/2
f 2/1/3 1/1/3 10/1/3 11/1/3
f 1/1/4 9/1/4 18/1/4 10/1/4
f 8/1/5 7/1/5 16/1/5 17/1/5
f 5/1/6 4/1/6 13/1/6 14/1/6
f 3/1/7 2/1/7 11/1/7 12/1/7
f 9/1/8 8/1/8 17/1/8 18/1/8
f 25/1/9 34/1/9 33/1/9 24/1/9
f 22/1/10 31/1/10 30/1/10 21/1/10
f 20/1/11 29/1/11 28/1/11 19/1/11
f 19/1/12 28/1/12 36/1/12 27/1/12
f 26/1/13 35/1/13 34/1/13 25/1/13
f 23/1/14 32/1/14 31/1/14 22/1/14
f 21/1/15 30/1/15 29/1/15 20/1/15
f 27/1/16 36/1/16 35/1/16 26/1/16
f 1/1/17 2/1/17 20/1/17 19/1/17
f 2/1/17 3/1/17 21/1/17 20/1/17
f 3/1/17 4/1/17 22/1/17 21/1/17
f 4/1/17 5/1/17 23/1/17 22/1/17
f 6/1/17 7/1/17 25/1/17 24/1/17
f 7/1/17 8/1/17 26/1/17 25/1/17
f 8/1/17 9/1/17 27/1/17 26/1/17
f 9/1/17 1/1/17 19/1/17 27/1/17
f 11/1/18 10/1/18 28/1/18 29/1/18
f 12/1/18 11/1/18 29/1/18 30/1/18
f 13/1/18 12/1/18 30/1/18 31/1/18
f 14/1/18 13/1/18 31/1/18 32/1/18
f 16/1/18 15/1/18 33/1/18 34/1/18
f 17/1/18 16/1/18 34/1/18 35/1/18
f 18/1/18 17/1/18 35/1/18 36/1/18
f 10/1/18 18/1/18 36/1/18 28/1/18
f 15/1/19 6/1/19 24/1/19 33/1/19
f 5/1/20 14/1/20 32/1/20 23/1/20
o Circle.001
v 0.000000 1.455880 -0.712444
v 0.000000 1.234359 -0.564428
v 0.000000 1.216107 -0.472671
v 0.035114 1.371107 -0.694192
v 0.064882 1.299241 -0.642216
v 0.084773 1.251221 -0.564428
v 0.091757 1.234359 -0.472671
v 0.064882 1.390998 -0.694192
v 0.119886 1.335994 -0.642216
v 0.156639 1.299241 -0.564428
v 0.169545 1.286335 -0.472671
v 0.084773 1.420766 -0.694192
v 0.156639 1.390998 -0.642216
v 0.204659 1.371107 -0.564428
v 0.221521 1.364123 -0.472671
v 0.091757 1.455880 -0.694192
v 0.169545 1.455880 -0.642216
v 0.221521 1.455880 -0.564428
v 0.239773 1.455880 -0.472671
v 0.084773 1.490994 -0.694192
v 0.156639 1.520762 -0.642216
v 0.204659 1.540653 -0.564428
v 0.221521 1.547637 -0.472671
v 0.064882 1.520762 -0.694192
v 0.119886 1.575766 -0.642216
v 0.156639 1.612519 -0.564428
v 0.169545 1.625425 -0.472671
v 0.035114 1.540653 -0.694192
v 0.064882 1.612519 -0.642216
v 0.084772 1.660539 -0.564428
v 0.091757 1.677401 -0.472671
v -0.000000 1.547637 -0.694192
v -0.000000 1.625425 -0.642216
v -0.000000 1.677401 -0.564428
v -0.000000 1.695653 -0.472671
v -0.035114 1.540653 -0.694192
v -0.064882 1.612519 -0.642216
v -0.084773 1.660539 -0.564428
v -0.091757 1.677401 -0.472671
v -0.064882 1.520762 -0.694192
v -0.119886 1.575766 -0.642216
v -0.156639 1.612519 -0.564428
v -0.169545 1.625425 -0.472671
v -0.084773 1.490994 -0.694192
v -0.156639 1.520762 -0.642216
v -0.204659 1.540652 -0.564428
v -0.221521 1.547637 -0.472671
v -0.091757 1.455880 -0.694192
v -0.169545 1.455880 -0.642216
v -0.221521 1.455880 -0.564428
v -0.239773 1.455880 -0.472671
v -0.084772 1.420766 -0.694192
v -0.156639 1.390998 -0.642216
v -0.204659 1.371107 -0.564428
v -0.221521 1.364123 -0.472671
v -0.064882 1.390998 -0.694192
v -0.119886 1.335994 -0.642216
v -0.156639 1.299241 -0.564428
v -0.169545 1.286335 -0.472671
v -0.035114 1.371107 -0.694192
v -0.064882 1.299241 -0.642216
v -0.084772 1.251221 -0.564428
v -0.091757 1.234359 -0.472671
v 0.000000 1.364123 -0.694192
v 0.000000 1.286335 -0.642216
vn 0.1632 -0.8203 -0.5481
vn 0.0388 -0.1949 -0.9800
vn 0.1915 -0.9626 -0.1915
vn 0.1098 -0.5522 -0.8264
vn 0.5453 -0.8161 -0.1915
vn 0.3128 -0.4681 -0.8264
vn 0.4647 -0.6954 -0.5481
vn 0.1104 -0.1653 -0.9800
vn 0.8161 -0.5453 -0.1915
vn 0.4681 -0.3128 -0.8264
vn 0.6954 -0.4647 -0.5481
vn 0.1653 -0.1104 -0.9800
vn 0.8203 -0.1632 -0.5481
vn 0.1949 -0.0388 -0.9800
vn 0.9626 -0.1915 -0.1915
vn 0.5522 -0.1098 -0.8264
vn 0.8203 0.1632 -0.5481
vn 0.1949 0.0388 -0.9800
vn 0.9626 0.1915 -0.1915
vn 0.5522 0.1098 -0.8264
vn 0.8161 0.5453 -0.1915
vn 0.4681 0.3128 -0.8264
vn 0.6954 0.4647 -0.5481
vn 0.1653 0.1104 -0.9800
vn 0.3128 0.4681 -0.8264
vn 0.4647 0.6954 -0.5481
vn 0.1104 0.1653 -0.9800
vn 0.5453 0.8161 -0.1915
vn 0.1632 0.8203 -0.5481
vn 0.0388 0.1949 -0.9800
vn 0.1915 0.9626 -0.1915
vn 0.1098 0.5522 -0.8264
vn -0.0388 0.1949 -0.9800
vn -0.1915 0.9626 -0.1915
vn -0.1098 0.5522 -0.8264
vn -0.1632 0.8203 -0.5481
vn -0.5453 0.8161 -0.1915
vn -0.3128 0.4681 -0.8264
vn -0.4647 0.6954 -0.5481
vn -0.1104 0.1653 -0.9800
vn -0.6954 0.4647 -0.5481
vn -0.1653 0.1104 -0.9800
vn -0.8161 0.5453 -0.1915
vn -0.4681 0.3128 -0.8264
vn -0.8203 0.1632 -0.5481
vn -0.1949 0.0388 -0.9800
vn -0.9626 0.1915 -0.1915
vn -0.5522 0.1098 -0.8264
vn -0.9626 -0.1915 -0.1915
vn -0.5522 -0.1098 -0.8264
vn -0.8203 -0.1632 -0.5481
vn -0.1949 -0.0388 -0.9800
vn -0.8161 -0.5453 -0.1915
vn -0.4681 -0.3128 -0.8264
vn -0.6954 -0.4647 -0.5481
vn -0.1653 -0.1104 -0.9800
vn -0.4647 -0.6954 -0.5481
vn -0.1104 -0.1653 -0.9800
vn -0.5453 -0.8161 -0.1915
vn -0.3128 -0.4681 -0.8264
vn -0.1632 -0.8203 -0.5481
vn -0.0388 -0.1949 -0.9800
vn -0.1915 -0.9626 -0.1915
vn -0.1098 -0.5522 -0.8264
vt 0.750000 0.625000
vt 0.750000 0.750000
vt 0.687500 0.750000
vt 0.687500 0.625000
vt 0.750000 0.875000
vt 0.718750 1.000000
vt 0.687500 0.875000
vt 0.750000 0.500000
vt 0.687500 0.500000
vt 0.625000 0.625000
vt 0.625000 0.500000
vt 0.625000 0.875000
vt 0.625000 0.750000
vt 0.656250 1.000000
vt 0.562500 0.625000
vt 0.562500 0.500000
vt 0.562500 0.875000
vt 0.562500 0.750000
vt 0.593750 1.000000
vt 0.500000 0.750000
vt 0.500000 0.625000
vt 0.531250 1.000000
vt 0.500000 0.875000
vt 0.500000 0.500000
vt 0.437500 0.750000
vt 0.437500 0.625000
vt 0.468750 1.000000
vt 0.437500 0.875000
vt 0.437500 0.500000
vt 0.375000 0.625000
vt 0.375000 0.500000
vt 0.375000 0.875000
vt 0.375000 0.750000
vt 0.406250 1.000000
vt 0.312500 0.875000
vt 0.312500 0.750000
vt 0.312500 0.625000
vt 0.343750 1.000000
vt 0.312500 0.500000
vt 0.250000 0.750000
vt 0.250000 0.625000
vt 0.281250 1.000000
vt 0.250000 0.875000
vt 0.250000 0.500000
vt 0.218750 1.000000
vt 0.187500 0.875000
vt 0.187500 0.625000
vt 0.187500 0.500000
vt 0.187500 0.750000
vt 0.125000 0.625000
vt 0.125000 0.500000
vt 0.125000 0.875000
vt 0.125000 0.750000
vt 0.156250 1.000000
vt 0.062500 0.750000
vt 0.062500 0.625000
vt 0.093750 1.000000
vt 0.062500 0.875000
vt 0.062500 0.500000
vt 0.000000 0.750000
vt 0.000000 0.625000
vt 0.031250 1.000000
vt 0.000000 0.875000
vt 0.000000 0.500000
vt 1.000000 0.500000
vt 1.000000 0.625000
vt 0.937500 0.625000
vt 0.937500 0.500000
vt 1.000000 0.750000
vt 1.000000 0.875000
vt 0.937500 0.875000
vt 0.937500 0.750000
vt 0.968750 1.000000
vt 0.875000 0.625000
vt 0.875000 0.500000
vt 0.875000 0.875000
vt 0.875000 0.750000
vt 0.906250 1.000000
vt 0.812500 0.750000
vt 0.812500 0.625000
vt 0.843750 1.000000
vt 0.812500 0.875000
vt 0.812500 0.500000
vt 0.781250 1.000000
s 0
usemtl ball
f 38/2/21 101/3/21 41/4/21 42/5/21
f 100/6/22 37/7/22 40/8/22
f 39/9/23 38/2/23 42/5/23 43/10/23
f 101/3/24 100/6/24 40/8/24 41/4/24
f 43/10/25 42/5/25 46/11/25 47/12/25
f 41/4/26 40/8/26 44/13/26 45/14/26
f 42/5/27 41/4/27 45/14/27 46/11/27
f 40/8/28 37/15/28 44/13/28
f 47/12/29 46/11/29 50/16/29 51/17/29
f 45/14/30 44/13/30 48/18/30 49/19/30
f 46/11/31 45/14/31 49/19/31 50/16/31
f 44/13/32 37/20/32 48/18/32
f 50/16/33 49/19/33 53/21/33 54/22/33
f 48/18/34 37/23/34 52/24/34
f 51/17/35 50/16/35 54/22/35 55/25/35
f 49/19/36 48/18/36 52/24/36 53/21/36
f 54/22/37 53/21/37 57/26/37 58/27/37
f 52/24/38 37/28/38 56/29/38
f 55/25/39 54/22/39 58/27/39 59/30/39
f 53/21/40 52/24/40 56/29/40 57/26/40
f 59/30/41 58/27/41 62/31/41 63/32/41
f 57/26/42 56/29/42 60/33/42 61/34/42
f 58/27/43 57/26/43 61/34/43 62/31/43
f 56/29/44 37/35/44 60/33/44
f 61/34/45 60/33/45 64/36/45 65/37/45
f 62/31/46 61/34/46 65/37/46 66/38/46
f 60/33/47 37/39/47 64/36/47
f 63/32/48 62/31/48 66/38/48 67/40/48
f 66/38/49 65/37/49 69/41/49 70/42/49
f 64/36/50 37/43/50 68/44/50
f 67/40/51 66/38/51 70/42/51 71/45/51
f 65/37/52 64/36/52 68/44/52 69/41/52
f 68/44/53 37/46/53 72/47/53
f 71/45/54 70/42/54 74/48/54 75/49/54
f 69/41/55 68/44/55 72/47/55 73/50/55
f 70/42/56 69/41/56 73/50/56 74/48/56
f 75/49/57 74/48/57 78/51/57 79/52/57
f 73/50/58 72/47/58 76/53/58 77/54/58
f 74/48/59 73/50/59 77/54/59 78/51/59
f 72/47/60 37/55/60 76/53/60
f 78/51/61 77/54/61 81/56/61 82/57/61
f 76/53/62 37/58/62 80/59/62
f 79/52/63 78/51/63 82/57/63 83/60/63
f 77/54/64 76/53/64 80/59/64 81/56/64
f 82/57/65 81/56/65 85/61/65 86/62/65
f 80/59/66 37/63/66 84/64/66
f 83/60/67 82/57/67 86/62/67 87/65/67
f 81/56/68 80/59/68 84/64/68 85/61/68
f 87/66/69 86/67/69 90/68/69 91/69/69
f 85/70/70 84/71/70 88/72/70 89/73/70
f 86/67/71 85/70/71 89/73/71 90/68/71
f 84/71/72 37/74/72 88/72/72
f 91/69/73 90/68/73 94/75/73 95/76/73
f 89/73/74 88/72/74 92/77/74 93/78/74
f 90/68/75 89/73/75 93/78/75 94/75/75
f 88/72/76 37/79/76 92/77/76
f 94/75/77 93/78/77 97/80/77 98/81/77
f 92/77/78 37/82/78 96/83/78
f 95/76/79 94/75/79 98/81/79 99/84/79
f 93/78/80 92/77/80 96/83/80 97/80/80
f 98/81/81 97/80/81 101/3/81 38/2/81
f 96/83/82 37/85/82 100/6/82
f 99/84/83 98/81/83 38/2/83 39/9/83
f 97/80/84 96/83/84 100/6/84 101/3/84
o Circle.003
v 0.000000 0.000000 -0.542671
v -0.390052 0.000000 -0.531568
v -0.732953 0.000000 -0.454157
v -0.973898 0.000000 -0.260609
v -1.057798 0.000000 0.029607
v 1.057798 0.000000 0.029607
v 0.973898 0.000000 -0.260609
v 0.732953 0.000000 -0.454157
v 0.390052 0.000000 -0.531568
v 0.000000 2.911760 -0.542671
v -0.390052 2.911760 -0.531568
v -0.732953 2.911760 -0.454157
v -0.973898 2.911760 -0.260609
v -1.057798 2.911760 0.029607
v 1.057798 2.911760 0.029607
v 0.973898 2.911760 -0.260609
v 0.732953 2.911760 -0.454157
v 0.390052 2.911760 -0.531568
vn 0.9607 -0.0000 -0.2777
vn -0.6263 -0.0000 -0.7796
vn -0.0285 -0.0000 -0.9996
vn 0.0285 -0.0000 -0.9996
vn 0.6263 -0.0000 -0.7796
vn -0.9607 -0.0000 -0.2777
vn -0.2202 -0.0000 -0.9755
vn 0.2202 -0.0000 -0.9755
vt 0.111650 0.000000
vt 0.111650 1.000000
vt -0.000000 1.000000
vt -0.000000 0.000000
vt 0.888350 0.000000
vt 0.888350 1.000000
vt 0.774131 1.000000
vt 0.774131 0.000000
vt 0.644213 0.000000
vt 0.644213 1.000000
vt 0.500000 1.000000
vt 0.500000 0.000000
vt 0.355787 1.000000
vt 0.355787 0.000000
vt 0.225869 0.000000
vt 0.225869 1.000000
vt 1.000000 0.000000
vt 1.000000 1.000000
s 0
usemtl wings
f 108/86/85 117/87/85 116/88/85 107/89/85
f 105/90/86 114/91/86 113/92/86 104/93/86
f 103/94/87 112/95/87 111/96/87 102/97/87
f 102/97/88 111/96/88 119/98/88 110/99/88
f 109/100/89 118/101/89 117/87/89 108/86/89
f 106/102/90 115/103/90 114/91/90 105/90/90
f 104/93/91 113/92/91 112/95/91 103/94/91
f 110/99/92 119/98/92 118/101/92 109/100/92
