# Blender 5.1.2
# www.blender.org
mtllib Skirt.mtl
o Cube
v 1.000000 1.000000 -1.000000
v 1.765044 -1.000000 -1.765044
v 1.000000 1.000000 1.000000
v 1.765044 -1.000000 1.765044
v -1.000000 1.000000 -1.000000
v -1.765044 -1.000000 -1.765044
v -1.000000 1.000000 1.000000
v -1.765044 -1.000000 1.765044
vn -0.0000 1.0000 -0.0000
vn -0.0000 0.3573 0.9340
vn -0.9340 0.3573 -0.0000
vn 0.9340 0.3573 -0.0000
vn -0.0000 0.3573 -0.9340
vt 0.625000 0.500000
vt 0.875000 0.500000
vt 0.875000 0.750000
vt 0.625000 0.750000
vt 0.375000 0.750000
vt 0.625000 1.000000
vt 0.375000 1.000000
vt 0.375000 0.000000
vt 0.625000 0.000000
vt 0.625000 0.250000
vt 0.375000 0.250000
vt 0.375000 0.500000
s 0
usemtl Material
f 1/1/1 5/2/1 7/3/1 3/4/1
f 4/5/2 3/4/2 7/6/2 8/7/2
f 8/8/3 7/9/3 5/10/3 6/11/3
f 2/12/4 1/1/4 3/4/4 4/5/4
f 6/11/5 5/10/5 1/1/5 2/12/5
